<svg width="800" height="800" xmlns="http://www.w3.org/2000/svg">

 <g>
  <title>Layer 1</title>
  <g stroke="null">
   <path stroke="null" d="m662.08289,566.81715l-67.75469,0l0,-4.63085c0,-6.40147 -5.9374,-11.59162 -13.26053,-11.59162l-268.03515,0c-7.32313,0 -13.26053,5.19015 -13.26053,11.59162l0,4.63085l-40.34186,0c-6.47114,-40.26929 -46.12345,-71.36092 -93.95088,-71.36092l-13.26053,0l0,71.36092l-14.62637,0l0,-98.76642c0,-15.95877 -14.8518,-28.93848 -33.10824,-28.93848l-2.22445,0c-18.25644,0 -33.10824,12.97972 -33.10824,28.93848l0,275.44012l68.44424,0l0,-16.12395l533.16625,0l0,16.12395l72.83348,0l0,-27.71557l0,-61.00381l0,-13.58248l0,-0.06955l0,-3.05149c-0.00332,-39.2898 -36.56592,-71.2508 -81.5125,-71.2508zm0,23.18324c26.97855,0 49.42864,17.08895 54.05988,39.52743l-121.81126,0l0,-39.52743l67.75138,0zm-509.86086,0l108.15622,0l39.39704,0l0,39.52743l-162.17963,0l0,-39.52743l14.62637,0z"/>
  </g>
  <g stroke="null">
   <g stroke="null">
    <g stroke="null">
     <g stroke="null">
      <path stroke="null" d="m704.70429,89.93978l-1.30715,-1.16191c-11.28813,-7.90034 -27.3607,-12.05823 -46.45628,-12.05823c-30.3533,0 -61.78914,10.29341 -75.96685,19.94843l-111.73285,76.28604l-217.81151,46.26375c-1.90669,0.41545 -3.67658,1.16191 -5.29279,2.26134c-4.22882,2.93012 -6.66749,7.91554 -6.38884,13.03606c0.43572,7.35316 6.05445,13.19819 13.30459,13.87203l92.11205,9.27504l-89.78484,61.28925c-26.73246,-12.27271 -52.11047,-24.17726 -75.45514,-35.35392c-36.17807,-17.34088 -59.79633,-20.3926 -70.8953,-9.28855c-11.55496,11.56172 -4.02617,31.31593 0.09626,37.3383l86.48825,112.13141c2.90985,4.24909 6.25204,6.68269 10.26301,7.41395c6.65736,1.14503 12.43822,-2.84061 18.46227,-7.10997l21.89903,-15.08968l121.65809,-59.07351l-17.80362,63.58437c-1.95229,7.04748 1.45577,14.3601 8.11313,17.43208c1.89149,0.87312 4.0211,1.32742 6.12538,1.32742c3.00274,0 5.87712,-0.8917 8.38165,-2.56533c1.6179,-1.08592 2.91492,-2.44373 3.99577,-4.08696l69.61348,-105.79324l42.58211,-49.82211l188.82784,-128.9133c2.89127,-1.96242 5.70993,-3.77284 8.53871,-5.59846c6.51043,-4.15283 12.66621,-8.09286 17.09938,-12.56488c9.54019,-9.5081 10.08737,-20.1207 1.33417,-32.97943z"/>
     </g>
    </g>
   </g>
  </g>
 </g>
</svg>